<svg width="185" height="150" xmlns="http://www.w3.org/2000/svg">

 <g>
  <title>background</title>
  <rect fill="none" id="canvas_background" height="602" width="802" y="-1" x="-1"/>
 </g>
 <g>
  <title>Layer 1</title>
  <g id="svg_1" fill-rule="evenodd" fill="none">
   <path id="svg_2" d="m141,75.00271c0,37.5543 -30.4466,67.99729 -68.0009,67.99729c-37.55611,0 -67.9991,-30.44299 -67.9991,-67.99729c0,-37.55972 30.44299,-68.00271 67.9991,-68.00271c37.5543,0 68.0009,30.44299 68.0009,68.00271" fill="#92268F"/>
   <path id="svg_3" d="m180,75.00271c0,37.5543 -30.4466,67.99729 -68.0009,67.99729c-37.55611,0 -67.9991,-30.44299 -67.9991,-67.99729c0,-37.55972 30.44299,-68.00271 67.9991,-68.00271c37.5543,0 68.0009,30.44299 68.0009,68.00271" fill="#000"/>
  </g>
  <text xml:space="preserve" text-anchor="start" font-family="Arvo, sans-serif" font-size="24" id="svg_4" y="83.33329" x="57.89062" stroke-width="0" stroke="#000" fill="#ffffff">VFX &amp; IM</text>
 </g>
</svg>